<?xml version="1.0" encoding="UTF-8"?><svg id="Capa_2" xmlns="http://www.w3.org/2000/svg" viewBox="0 0 319.7 99.59"><defs><style>.cls-1{fill:#58595b;}</style></defs><g id="Capa_1-2"><g><g><g><path class="cls-1" d="M113.35,47.72h-4.85v-6.97h4.85v-6.06h9.7v6.06h15.05v6.97h-15.05v9.9c0,1.92,1.41,2.32,3.74,2.32,3.13,0,3.99-.71,3.99-3.08v-1.72h8.48v3.13c0,4.9-3.23,8.64-10.96,8.64h-3.84c-5.96,0-11.11-1.87-11.11-8.99v-10.2Z"/><path class="cls-1" d="M142.82,52.22c0-9.75,4.85-11.87,11.92-11.87h6.77c10.3,0,14.54,2.17,14.54,11.11v4.34h-23.53v1.57c0,2.73,1.92,3.49,5.96,3.49h2.98c5.25,0,5.5-1.41,5.5-2.93h9.09v1.11c0,6.46-5.76,7.88-12.78,7.88h-7.27c-6.41,0-13.18-1.21-13.18-12.22v-2.47Zm23.84-2.17c0-3.08-1.41-3.64-7.07-3.64-6.31,0-7.07,.56-7.07,3.64h14.14Z"/><path class="cls-1" d="M180.48,40.75h9.09v4.9h.1c1.11-4.09,5.05-5.3,9.44-5.3,7.07,0,9.85,3.03,9.85,10.15,0,.66-.05,1.36-.1,2.27h-8.38c0-3.28-.76-4.85-4.65-4.85-3.33,0-5.66,1.26-5.66,4.34v14.24h-9.7v-25.76Z"/><path class="cls-1" d="M212.95,40.75h9.7v4.14h.1c1.72-3.59,5.1-4.54,10.3-4.54,6.01,0,14.39,.25,14.39,11.36v14.8h-9.7v-14.8c0-2.52-2.02-3.79-6.26-3.79h-2.22c-4.14,0-6.62,1.92-6.62,5.61v12.98h-9.7v-25.76Z"/><path class="cls-1" d="M251.4,57.47c0-7.02,4.85-7.42,14.24-7.42,5.3,0,8.23,.15,10.1,2.07v-2.27c0-2.53-.76-3.43-4.54-3.43h-5.71c-2.83,0-3.64,.25-3.74,2.07h-9.39c0-6.97,3.43-8.13,11.62-8.13h11.26c6.67,0,10.2,3.18,10.2,9.24v16.92h-9.19v-2.93c-2.68,2.78-3.69,3.33-8.53,3.33h-6.62c-5.91,.05-9.7-1.26-9.7-7.32v-2.12Zm17.27,3.38c6.67,0,7.27-1.01,7.27-2.73,0-1.92-.56-2.63-5.91-2.63h-4.29c-4.09,0-4.95,.91-4.95,3.03,0,1.67,1.31,2.32,5.1,2.32h2.78Z"/></g><g><path class="cls-1" d="M77.05,59.16h21.65c.35-1.83,.6-3.69,.74-5.58h-22.4v5.58Z"/><path class="cls-1" d="M44.76,41.9h-15.96v5.43h16.09c1.84,0,2.51-.09,3.12-.38,.76-.43,1.23-1.28,1.23-2.37,0-.72-.2-1.34-.56-1.8-.26-.29-.59-.51-.98-.65-.62-.19-1.09-.24-2.94-.24Z"/><path class="cls-1" d="M77.05,47.33h22.48c-.09-1.84-.28-3.66-.57-5.44h-21.91v5.44Z"/><path class="cls-1" d="M67.59,66.3v-31.55h29.68C90.9,14.6,72.05,0,49.79,0,22.29,0,0,22.29,0,49.79s22.29,49.79,49.79,49.79c21.71,0,40.18-13.9,46.99-33.29h-29.19Zm-18.27,.25H19.4v-31.8h28.47c3.64,0,5.63,.33,7.28,1.14,.52,.27,.98,.58,1.38,.92,1.67,1.36,2.38,3.39,2.38,6.71,0,3.97-1.32,6.09-4.07,6.76,1.88,.42,3.16,1.07,3.98,2.14,.98,1.15,1.38,2.8,1.38,5.2,0,3.99-1.14,6.51-3.66,7.84-1.47,.76-3.56,1.09-7.22,1.09Z"/><path class="cls-1" d="M48.86,59.06c.95-.33,1.51-1.28,1.51-2.6,0-.64-.13-1.19-.37-1.63-.27-.4-.64-.69-1.12-.87-.57-.19-.95-.24-3.09-.24H28.8v5.57h17.13c1.94,0,2.32-.05,2.93-.24Z"/></g></g><g><g><path class="cls-1" d="M108.55,99.21v-14.83h6.58c.88,0,1.67,.21,2.36,.62,.69,.42,1.23,1,1.62,1.75,.39,.75,.59,1.61,.59,2.58s-.2,1.86-.59,2.62c-.39,.76-.93,1.34-1.62,1.76-.69,.42-1.48,.62-2.36,.62h-3.81v4.87h-2.77Zm6.46-7.58c.36,0,.69-.1,.98-.29,.3-.19,.53-.46,.69-.79,.17-.34,.25-.73,.25-1.19,0-.68-.18-1.23-.55-1.64-.37-.42-.82-.62-1.38-.62h-3.68v4.53h3.68Z"/><path class="cls-1" d="M124.32,99.42c-.76,0-1.42-.14-2-.43-.57-.29-1.01-.68-1.32-1.19s-.47-1.06-.47-1.68c0-.69,.16-1.3,.48-1.83,.32-.53,.8-.94,1.44-1.24,.64-.3,1.43-.44,2.37-.44h2.46v-.23c0-.56-.17-1.02-.52-1.38-.35-.35-.8-.53-1.37-.53s-.97,.12-1.28,.36c-.32,.24-.52,.53-.62,.87h-2.55c.06-.59,.27-1.15,.63-1.67,.37-.52,.87-.95,1.52-1.27,.65-.32,1.41-.49,2.3-.49s1.7,.18,2.38,.53c.68,.35,1.2,.84,1.56,1.46,.37,.62,.55,1.33,.55,2.12v6.84h-2.26l-.21-1.04h-.1c-.23,.32-.62,.61-1.16,.87-.54,.25-1.15,.38-1.84,.38Zm.46-2.14c.52,0,.98-.1,1.36-.3,.38-.2,.67-.48,.86-.86,.19-.37,.29-.81,.29-1.3v-.32h-2.19c-.65,0-1.13,.13-1.46,.38-.32,.25-.49,.59-.49,1.02s.14,.76,.42,1.01c.28,.25,.69,.37,1.21,.37Z"/><path class="cls-1" d="M132.43,99.21v-10.74h2.26l.21,.93h.1c.18-.28,.42-.51,.73-.68,.31-.17,.69-.25,1.15-.25h1.92v2.52h-1.76c-.66,0-1.16,.18-1.5,.53-.34,.35-.51,.88-.51,1.57v6.12h-2.61Z"/><path class="cls-1" d="M143.92,99.21c-.86,0-1.51-.23-1.98-.68-.46-.45-.69-1.08-.69-1.89v-5.66h-1.66v-2.52h1.66v-3.22h2.61v3.22h2.38v2.52h-2.38v5.11c0,.24,.05,.42,.16,.53,.1,.11,.28,.17,.53,.17h1.7v2.42h-2.32Z"/><path class="cls-1" d="M158.18,99.42c-1.01,0-1.92-.24-2.73-.72-.81-.48-1.45-1.14-1.91-1.99-.46-.85-.69-1.8-.69-2.86s.23-2.03,.69-2.88c.46-.85,1.1-1.51,1.91-1.99,.81-.48,1.72-.72,2.73-.72s1.92,.24,2.73,.72c.81,.48,1.45,1.14,1.91,1.99,.46,.85,.69,1.81,.69,2.88s-.23,2.01-.69,2.86c-.46,.85-1.1,1.51-1.91,1.99-.81,.48-1.72,.72-2.73,.72Zm0-2.48c.5,0,.95-.13,1.38-.38s.75-.62,.99-1.09c.24-.47,.36-1.01,.36-1.62s-.12-1.17-.36-1.64-.57-.84-.99-1.09c-.42-.25-.88-.38-1.38-.38s-.97,.13-1.39,.38c-.41,.25-.74,.62-.99,1.09-.25,.47-.37,1.02-.37,1.64s.12,1.15,.37,1.62c.25,.47,.58,.84,.99,1.09,.41,.25,.88,.38,1.39,.38Z"/><path class="cls-1" d="M166.27,99.21v-8.22h-1.7v-2.52h1.7v-1.69c0-.81,.23-1.44,.7-1.91,.47-.47,1.11-.7,1.92-.7h2.24v2.31h-1.57c-.22,0-.39,.06-.51,.19-.12,.13-.18,.3-.18,.53v1.27h2.26v2.52h-2.26v8.22h-2.61Z"/></g><g><path class="cls-1" d="M179.79,99.17v-12.12h-4.14v-2.71h10.96v2.71h-4.14v12.12h-2.69Z"/><path class="cls-1" d="M191.32,99.38c-.98,0-1.86-.24-2.65-.72-.79-.48-1.41-1.14-1.86-1.99-.45-.85-.67-1.8-.67-2.86s.22-2.03,.67-2.88c.45-.85,1.07-1.51,1.86-1.99,.79-.48,1.67-.72,2.65-.72s1.79,.23,2.55,.7c.76,.47,1.37,1.11,1.81,1.93,.44,.82,.66,1.73,.66,2.73,0,.24-.01,.46-.03,.66-.02,.2-.04,.35-.07,.44h-7.59c.05,.48,.2,.91,.45,1.28,.25,.37,.57,.67,.95,.88,.39,.21,.81,.32,1.26,.32,.51,0,.95-.11,1.32-.33,.37-.22,.66-.48,.84-.79h2.57c-.17,.55-.46,1.08-.86,1.58-.4,.5-.93,.92-1.59,1.26-.66,.34-1.42,.51-2.29,.51Zm2.51-6.48c-.04-.47-.17-.89-.39-1.27-.22-.38-.52-.68-.88-.89-.37-.21-.78-.32-1.23-.32-.48,0-.91,.11-1.28,.32-.37,.21-.68,.51-.92,.89-.24,.38-.4,.8-.46,1.27h5.18Z"/><path class="cls-1" d="M198.36,99.17v-14.83h2.53v14.83h-2.53Z"/><path class="cls-1" d="M208.12,99.38c-.98,0-1.86-.24-2.65-.72-.79-.48-1.41-1.14-1.86-1.99-.45-.85-.67-1.8-.67-2.86s.22-2.03,.67-2.88c.45-.85,1.07-1.51,1.86-1.99,.79-.48,1.67-.72,2.65-.72s1.79,.23,2.55,.7c.76,.47,1.37,1.11,1.81,1.93,.44,.82,.66,1.73,.66,2.73,0,.24-.01,.46-.03,.66-.02,.2-.04,.35-.07,.44h-7.59c.05,.48,.2,.91,.45,1.28,.25,.37,.57,.67,.95,.88,.39,.21,.81,.32,1.26,.32,.51,0,.95-.11,1.32-.33,.37-.22,.66-.48,.84-.79h2.57c-.17,.55-.46,1.08-.86,1.58-.4,.5-.93,.92-1.59,1.26-.66,.34-1.42,.51-2.29,.51Zm2.51-6.48c-.04-.47-.17-.89-.39-1.27-.22-.38-.52-.68-.88-.89-.37-.21-.78-.32-1.23-.32-.48,0-.91,.11-1.28,.32-.37,.21-.68,.51-.92,.89-.24,.38-.4,.8-.46,1.27h5.18Z"/><path class="cls-1" d="M215.75,99.17v-8.22h-1.65v-2.52h1.65v-1.69c0-.81,.23-1.44,.68-1.91,.46-.47,1.08-.7,1.87-.7h2.17v2.31h-1.53c-.21,0-.38,.06-.49,.19-.11,.13-.17,.3-.17,.53v1.27h2.19v2.52h-2.19v8.22h-2.53Z"/><path class="cls-1" d="M226.43,99.38c-.98,0-1.86-.24-2.65-.72-.79-.48-1.41-1.14-1.86-1.99-.45-.85-.67-1.8-.67-2.86s.22-2.03,.67-2.88c.45-.85,1.07-1.51,1.86-1.99,.79-.48,1.67-.72,2.65-.72s1.86,.24,2.65,.72c.79,.48,1.41,1.14,1.86,1.99,.45,.85,.67,1.81,.67,2.88s-.22,2.01-.67,2.86c-.45,.85-1.07,1.51-1.86,1.99-.79,.48-1.67,.72-2.65,.72Zm0-2.48c.48,0,.93-.13,1.33-.38,.41-.25,.73-.62,.96-1.09,.23-.47,.35-1.01,.35-1.62s-.12-1.17-.35-1.64c-.23-.47-.56-.84-.96-1.09-.41-.25-.85-.38-1.33-.38s-.94,.13-1.35,.38c-.4,.25-.72,.62-.96,1.09s-.36,1.02-.36,1.64,.12,1.15,.36,1.62c.24,.47,.56,.84,.96,1.09,.4,.25,.85,.38,1.35,.38Zm-1.02-10.17l1.93-3.05h2.63l-2.41,3.05h-2.15Z"/><path class="cls-1" d="M233.53,99.17v-10.74h2.19l.2,1.04h.1c.24-.32,.62-.61,1.12-.87,.51-.25,1.1-.38,1.79-.38,.78,0,1.47,.19,2.08,.56,.61,.37,1.08,.9,1.43,1.59,.34,.69,.51,1.47,.51,2.36v6.44h-2.53v-6.08c0-.45-.09-.85-.27-1.21-.18-.35-.44-.63-.76-.83-.33-.2-.7-.3-1.11-.3s-.79,.1-1.13,.31c-.34,.2-.61,.48-.79,.84-.19,.35-.28,.75-.28,1.19v6.08h-2.53Z"/><path class="cls-1" d="M246.62,86.35c-.43,0-.78-.14-1.05-.42-.27-.28-.41-.64-.41-1.06s.14-.79,.41-1.07c.27-.28,.63-.41,1.05-.41s.77,.14,1.05,.41c.29,.28,.43,.63,.43,1.07s-.14,.78-.43,1.06c-.29,.28-.64,.42-1.05,.42Zm-1.26,12.82v-10.74h2.53v10.74h-2.53Z"/><path class="cls-1" d="M255.01,99.38c-.98,0-1.86-.24-2.65-.72-.79-.48-1.41-1.14-1.86-1.99-.45-.85-.67-1.8-.67-2.86s.22-2.03,.67-2.88c.45-.85,1.07-1.51,1.86-1.99,.79-.48,1.67-.72,2.65-.72,.91,0,1.71,.19,2.39,.58,.68,.39,1.23,.9,1.65,1.53,.41,.63,.69,1.31,.82,2.04h-2.55c-.15-.48-.41-.88-.79-1.2-.38-.32-.89-.48-1.52-.48-.48,0-.93,.13-1.34,.38-.41,.25-.73,.62-.96,1.09-.23,.47-.35,1.02-.35,1.64s.12,1.15,.35,1.62c.23,.47,.56,.84,.96,1.1,.41,.26,.85,.39,1.34,.39,.63,0,1.13-.16,1.52-.49,.38-.32,.65-.75,.79-1.27h2.55c-.13,.75-.41,1.44-.82,2.09-.42,.64-.96,1.16-1.64,1.55-.68,.39-1.48,.58-2.4,.58Z"/><path class="cls-1" d="M264.93,99.38c-.74,0-1.38-.14-1.94-.43-.56-.29-.98-.68-1.28-1.19-.3-.5-.45-1.06-.45-1.68,0-.69,.15-1.3,.46-1.83,.31-.53,.77-.94,1.39-1.24,.62-.3,1.39-.44,2.3-.44h2.39v-.23c0-.56-.17-1.02-.5-1.38-.34-.35-.78-.53-1.33-.53s-.94,.12-1.24,.36c-.31,.24-.51,.53-.6,.87h-2.47c.05-.59,.26-1.15,.61-1.67,.35-.52,.85-.95,1.48-1.27,.63-.32,1.37-.49,2.23-.49s1.65,.18,2.31,.53c.66,.35,1.16,.84,1.52,1.46,.35,.62,.53,1.33,.53,2.12v6.84h-2.19l-.2-1.04h-.1c-.23,.32-.6,.61-1.12,.87-.52,.25-1.12,.38-1.79,.38Zm.44-2.14c.51,0,.95-.1,1.32-.3,.37-.2,.65-.48,.83-.86,.19-.37,.28-.81,.28-1.3v-.32h-2.13c-.63,0-1.1,.13-1.42,.38-.31,.25-.47,.59-.47,1.02s.14,.76,.41,1.01c.27,.25,.67,.37,1.17,.37Z"/><path class="cls-1" d="M280.35,99.17v-12.12h-4.14v-2.71h10.96v2.71h-4.14v12.12h-2.69Z"/><path class="cls-1" d="M291.87,99.38c-.98,0-1.86-.24-2.65-.72-.79-.48-1.41-1.14-1.86-1.99-.45-.85-.67-1.8-.67-2.86s.22-2.03,.67-2.88c.45-.85,1.07-1.51,1.86-1.99,.79-.48,1.67-.72,2.65-.72s1.79,.23,2.55,.7c.76,.47,1.37,1.11,1.81,1.93,.44,.82,.66,1.73,.66,2.73,0,.24-.01,.46-.03,.66-.02,.2-.04,.35-.07,.44h-7.59c.05,.48,.2,.91,.45,1.28,.25,.37,.57,.67,.95,.88,.39,.21,.81,.32,1.26,.32,.51,0,.95-.11,1.32-.33,.37-.22,.66-.48,.84-.79h2.57c-.17,.55-.46,1.08-.86,1.58-.4,.5-.93,.92-1.59,1.26-.66,.34-1.42,.51-2.29,.51Zm2.51-6.48c-.04-.47-.17-.89-.39-1.27-.22-.38-.52-.68-.88-.89-.37-.21-.78-.32-1.23-.32-.48,0-.91,.11-1.28,.32-.37,.21-.68,.51-.92,.89-.24,.38-.4,.8-.46,1.27h5.18Z"/><path class="cls-1" d="M303.48,99.38c-.98,0-1.86-.24-2.65-.72-.79-.48-1.41-1.14-1.86-1.99-.45-.85-.67-1.8-.67-2.86s.22-2.03,.67-2.88c.45-.85,1.07-1.51,1.86-1.99,.79-.48,1.67-.72,2.65-.72,.91,0,1.71,.19,2.39,.58,.68,.39,1.23,.9,1.65,1.53,.41,.63,.69,1.31,.82,2.04h-2.55c-.15-.48-.41-.88-.79-1.2-.38-.32-.89-.48-1.52-.48-.48,0-.93,.13-1.34,.38-.41,.25-.73,.62-.96,1.09-.23,.47-.35,1.02-.35,1.64s.12,1.15,.35,1.62c.23,.47,.56,.84,.96,1.1,.41,.26,.85,.39,1.34,.39,.63,0,1.13-.16,1.52-.49,.38-.32,.65-.75,.79-1.27h2.55c-.13,.75-.41,1.44-.82,2.09-.42,.64-.96,1.16-1.64,1.55-.68,.39-1.48,.58-2.4,.58Z"/><path class="cls-1" d="M310.28,99.17v-14.83h2.53v5.13h.1c.23-.32,.59-.61,1.08-.87,.49-.25,1.06-.38,1.69-.38,.78,0,1.47,.19,2.08,.56,.61,.37,1.08,.9,1.43,1.59,.34,.69,.51,1.47,.51,2.36v6.44h-2.53v-6.08c0-.45-.09-.85-.27-1.21-.18-.35-.44-.63-.76-.83-.33-.2-.7-.3-1.11-.3s-.79,.1-1.13,.31c-.34,.2-.61,.48-.79,.84-.19,.35-.28,.75-.28,1.19v6.08h-2.53Z"/></g></g></g></g></svg>
